<?xml version="1.0" encoding="UTF-8"?>
<svg version="1.1" xmlns="http://www.w3.org/2000/svg" width="295" height="257">
<path d="M0 0 C97.35 0 194.7 0 295 0 C295 84.81 295 169.62 295 257 C197.65 257 100.3 257 0 257 C0 172.19 0 87.38 0 0 Z " fill="#FDFEFE" transform="translate(0,0)"/>
<path d="M0 0 C4.39530281 0.48836698 6.0219 1.82976452 9 5 C9.680625 5.309375 10.36125 5.61875 11.0625 5.9375 C13 7 13 7 14.375 9.375 C16.40229557 12.64986207 18.79707901 13.9082965 22 16 C24.06374661 18.36723875 25.86976698 20.81670908 27.6875 23.375 C29.78799866 25.75934983 31.70671058 27.32474772 34.25 29.1875 C37.71898425 31.78782803 40.23001912 34.39754662 42.8125 37.875 C47.33634191 43.85784975 52.86864941 47.76936809 59 52 C59.26941406 51.09378906 59.53882813 50.18757813 59.81640625 49.25390625 C62.27565359 42.49300515 66.8861776 38.21377583 73.25 35 C83.75991461 30.71818294 93.58893977 33.1810638 103.75 37.1875 C110.77379443 40.19133087 118.32312377 43.67666956 124.03125 48.8359375 C125.98884767 50.30439562 125.98884767 50.30439562 128.42578125 49.39453125 C131.1102572 47.94027038 133.64642917 46.38029607 136.1875 44.6875 C147.94177242 37.10867288 159.66778745 31.31497105 174 33 C180.67381165 34.68511364 186.43003962 37.79051164 191 43 C192.4375 45.875 192.4375 45.875 193 48 C198.35404378 43.7575444 198.35404378 43.7575444 202.5 38.4375 C204.4374616 35.2891249 206.82942943 33.66424348 209.83203125 31.55859375 C212.01721121 30.04136608 212.01721121 30.04136608 213.94921875 28.28515625 C218.65846102 24.22546464 221.88503396 23.39634251 228.09375 23.7890625 C228.7228125 23.85867187 229.351875 23.92828125 230 24 C230.38218767 25.65614657 230.71395102 27.32457024 231 29 C230 30 230 30 226.9375 30.1875 C222.69338181 30.72671174 220.1726459 32.80670421 216.91796875 35.45703125 C215 37 215 37 211.75 39 C208.55957244 41.32031095 207.136145 43.69868499 205 47 C203.13251989 48.65291857 201.25428867 50.26003302 199.29296875 51.80078125 C197.56123438 54.74629923 198.16163029 56.86951507 198.66088867 60.14868164 C199.38561312 66.24231507 199.10089367 72.43182847 199.0625 78.5625 C199.05747366 79.96679527 199.05291276 81.3710923 199.04882812 82.77539062 C199.03711593 86.18363903 199.02071372 89.5917964 199 93 C199.57500244 93.17450684 200.15000488 93.34901367 200.74243164 93.52880859 C215.64507348 98.24043476 229.42681389 108.12465201 237 122 C240.25414245 128.9520316 239.79753723 136.31257159 237.5 143.5 C231.16845048 159.14135405 216.81619406 167.54941211 202 174 C201.34 174 200.68 174 200 174 C203.64202674 180.3256254 206.58198597 185.33256341 213 189 C213 189.99 213 190.98 213 192 C213.5775 192.0825 214.155 192.165 214.75 192.25 C217.63869579 193.2128986 218.89119161 194.82728832 221 197 C221.78375 197.433125 222.5675 197.86625 223.375 198.3125 C226.93046358 200.59815516 229.57546586 203.54233103 232 207 C232 207.66 232 208.32 232 209 C234.31 209.66 236.62 210.32 239 211 C239 212.98 239 214.96 239 217 C236.9375 217.8125 236.9375 217.8125 234 218 C229.84940922 215.85058691 225.98005903 212.57607083 223 209 C223 208.01 223 207.02 223 206 C222.40058594 205.89429688 221.80117187 205.78859375 221.18359375 205.6796875 C218.69031271 204.9036036 217.78839202 204.04690746 216.0625 202.125 C213.57773632 199.49664445 211.12351192 197.84207113 208 196 C206.29319053 194.37446717 204.62339805 192.70884005 203 191 C202.00236685 189.99763873 201.00289434 188.99709726 200 188 C199.98582031 189.05316406 199.97164062 190.10632813 199.95703125 191.19140625 C199.58143534 205.06093296 197.66902393 217.84943484 187.296875 228.03515625 C179.82696892 234.42522896 172.58584569 234.9342727 162.99560547 234.21875 C149.89177845 232.7823628 137.78691611 225.48789858 128 217 C124.77133613 218.52422969 121.8566083 220.35228813 118.875 222.3125 C113.73438927 225.60057681 108.56505626 228.4970999 103 231 C101.99646484 231.48146484 101.99646484 231.48146484 100.97265625 231.97265625 C93.07335703 235.23244384 82.59872073 235.39760042 74.37109375 233.34375 C66.50963741 229.77455651 61.06447999 222.896381 58 215 C55.72310462 208.69003882 54.5386686 202.67949062 54 196 C53.63648438 196.50789062 53.27296875 197.01578125 52.8984375 197.5390625 C43.50413983 210.40202392 43.50413983 210.40202392 38 212 C35.25 211.625 35.25 211.625 33 211 C33.46068764 206.36047246 35.03943904 204.58160854 38.47265625 201.5234375 C39.82133789 200.26853516 39.82133789 200.26853516 41.19726562 198.98828125 C43.09794213 197.2547399 45.01198809 195.53573761 46.93945312 193.83203125 C52.09317502 189.16257363 52.09317502 189.16257363 54.62060547 182.89941406 C54.62103965 180.18926016 54.456669 177.66852981 54 175 C52.45892578 174.27296875 52.45892578 174.27296875 50.88671875 173.53125 C37.22089675 166.97284607 23.64622701 159.67799964 17.0625 145.1875 C14.21129705 136.63389114 13.79792972 129.24749843 17.87109375 121.05859375 C25.13898944 107.8053722 38.65954591 97.79131994 53 93 C53.66 93 54.32 93 55 93 C57.77632569 72.2477926 57.77632569 72.2477926 52.1640625 53.578125 C49.2870643 51.18964364 46.06986902 49.53755688 42.70019531 47.9453125 C40.05355372 46.47377369 38.60381438 44.3799101 36.875 41.9375 C33.15126951 36.86774572 28.67176669 33.23364372 23.734375 29.421875 C21 27 21 27 18.953125 23.890625 C16.81916545 20.73236487 15.26281226 19.85495158 12 18 C9.59276034 15.99036546 7.36117181 13.82159354 5.125 11.625 C4.51914062 11.06039063 3.91328125 10.49578125 3.2890625 9.9140625 C1.6818769 8.33609846 0.24995513 6.87435454 -1 5 C-0.8828125 2.0859375 -0.8828125 2.0859375 0 0 Z " fill="#117EA1" transform="translate(24,1)"/>
<path d="M0 0 C5.44317472 1.45910197 8.40064229 5.22322968 12.125 9.1875 C17.25891305 14.50727879 22.18293522 18.78621654 28.61328125 22.515625 C32.22825357 24.76388929 35.49044237 27.53972258 38 31 C38 31.99 38 32.98 38 34 C38.66 34 39.32 34 40 34 C41.02611949 35.65071396 42.02308143 37.31970006 43 39 C43.515625 39.515625 44.03125 40.03125 44.5625 40.5625 C46.21515119 42.21515119 46.96177525 43.92355049 48 46 C48.66 46.33 49.32 46.66 50 47 C53.4798582 57.44656227 51.48121341 70.62525534 47.6796875 80.64453125 C44.23821023 87.51948236 38.76173043 94.39773229 31.4765625 97.4453125 C16.07172576 100.89560717 2.36348577 95.77500967 -10.80859375 88.09765625 C-14.11834713 85.92221248 -17.01178881 83.59158587 -20 81 C-23.22866387 82.52422969 -26.1433917 84.35228813 -29.125 86.3125 C-34.26561073 89.60057681 -39.43494374 92.4970999 -45 95 C-45.66902344 95.32097656 -46.33804688 95.64195312 -47.02734375 95.97265625 C-54.92664297 99.23244384 -65.40127927 99.39760042 -73.62890625 97.34375 C-82.5919684 93.27441454 -87.53467794 85.47147042 -90.90625 76.62109375 C-92.84832568 70.87578652 -94.16846848 65.04790629 -93 59 C-90.75 56.25 -90.75 56.25 -88 54 C-87.38125 53.01 -86.7625 52.02 -86.125 51 C-83.86299638 47.80658313 -81.73292244 46.16247694 -78.48828125 44.078125 C-76.83516932 43.05532293 -76.83516932 43.05532293 -76 41 C-75.175 40.525625 -74.35 40.05125 -73.5 39.5625 C-70.70844517 38.18680459 -70.70844517 38.18680459 -70 35 C-68.35546875 33.78125 -68.35546875 33.78125 -66.1875 32.5 C-56.36145273 26.2044562 -48.11926502 17.30379377 -40 9 C-39.56429687 9.39832031 -39.12859375 9.79664063 -38.6796875 10.20703125 C-32.58838798 15.62591459 -27.86864185 18.59060217 -19.5234375 18.27734375 C-13.78614096 17.64677401 -9.66085718 16.08849618 -5.6875 11.8125 C-2.81337995 8.14740958 -1.39573845 4.41983842 0 0 Z " fill="#117EA1" transform="translate(172,137)"/>
<path d="M0 0 C4.06396972 2.95070142 8.01361341 5.95289189 11.75 9.3125 C17.76634267 14.67099208 24.29879174 19.53252783 31 24 C31 24.66 31 25.32 31 26 C31.66 26 32.32 26 33 26 C33.99 27.485 33.99 27.485 35 29 C35.86625 29.515625 36.7325 30.03125 37.625 30.5625 C38.40875 31.036875 39.1925 31.51125 40 32 C40 32.66 40 33.32 40 34 C40.515625 34.2475 41.03125 34.495 41.5625 34.75 C47.63183198 37.86247794 52.98546868 41.32261793 58.3125 45.5625 C58.93189453 46.04396484 59.55128906 46.52542969 60.18945312 47.02148438 C62.9564649 49.20565111 65.03033528 51.04550291 67 54 C66.33613281 54.27972656 65.67226562 54.55945313 64.98828125 54.84765625 C60.04339693 57.09270592 55.8258273 59.10410915 52.83203125 63.75 C51.75001572 66.67601384 51.8113555 69.32341873 51.6875 72.4375 C50.56575808 83.13983362 41.70860038 89.31568419 34 96 C33.36924561 96.55800293 32.73849121 97.11600586 32.08862305 97.69091797 C28.24049613 101.06030318 24.28805281 103.84514511 19.91796875 106.5078125 C17.7742779 108.17561271 17.16235843 109.59190722 16 112 C14.01679982 113.03291676 12.01652194 114.0337499 10 115 C9.34 115.99 8.68 116.98 8 118 C7.01 118.33 6.02 118.66 5 119 C3.98812105 120.65948148 2.9873454 122.32580562 2 124 C1.34 124 0.68 124 0 124 C-0.33 124.66 -0.66 125.32 -1 126 C-0.8865625 125.3709375 -0.773125 124.741875 -0.65625 124.09375 C-0.46079656 120.84922289 -0.64126567 118.98237914 -2 116 C-6.4068487 113.05856123 -11.12350105 111.08884121 -15.95996094 108.95898438 C-25.80434321 104.33132358 -34.41337633 96.14490138 -38.9375 86.1875 C-41.78870295 77.63389114 -42.20207028 70.24749843 -38.12890625 62.05859375 C-30.86101056 48.8053722 -17.34045409 38.79131994 -3 34 C-2.34 34 -1.68 34 -1 34 C-1.00523682 33.04109863 -1.01047363 32.08219727 -1.01586914 31.09423828 C-1.03394679 27.54216441 -1.04544215 23.99009463 -1.05493164 20.43798828 C-1.05996552 18.89956987 -1.06679308 17.36115625 -1.07543945 15.82275391 C-1.08754639 13.61359474 -1.09323769 11.40449874 -1.09765625 9.1953125 C-1.10281754 8.50567413 -1.10797882 7.81603577 -1.11329651 7.10549927 C-1.11387171 2.22774341 -1.11387171 2.22774341 0 0 Z " fill="#117EA1" transform="translate(80,60)"/>
<path d="M0 0 C0.66 0 1.32 0 2 0 C4.53257158 7.73730529 4.22512539 15.45596388 4.125 23.5 C4.11495069 24.90884781 4.10582829 26.31770255 4.09765625 27.7265625 C4.07419969 31.1512205 4.04137384 34.57551939 4 38 C4.57500244 38.17450684 5.15000488 38.34901367 5.74243164 38.52880859 C20.64507348 43.24043476 34.42681389 53.12465201 42 67 C45.25414245 73.9520316 44.79753723 81.31257159 42.5 88.5 C36.50325949 103.31424746 23.66524443 110.90389195 10.06640625 117.84765625 C7 119 7 119 4.6796875 118.8203125 C2.09580028 117.55841409 1.38028452 115.48451214 0 113 C-4.58987801 106.9675889 -10.01219043 101.17486225 -17 98 C-17 97.34 -17 96.68 -17 96 C-17.5775 95.896875 -18.155 95.79375 -18.75 95.6875 C-21.35661158 94.89103535 -22.9735311 93.80934723 -25 92 C-25 91.34 -25 90.68 -25 90 C-25.55945313 89.77054687 -26.11890625 89.54109375 -26.6953125 89.3046875 C-29.61950698 87.64929605 -31.55936349 85.55605765 -33.875 83.125 C-37.39142408 79.52092312 -40.79684389 76.77026198 -45 74 C-46.59690336 72.30867819 -48.07170156 70.55123477 -49.54296875 68.75 C-51.5513938 66.33773613 -53.74876521 64.185022 -56 62 C-54.34605324 57.97215318 -51.53988645 55.02767982 -48.625 51.875 C-48.14289063 51.33746094 -47.66078125 50.79992187 -47.1640625 50.24609375 C-44.66241973 47.52011889 -42.48787472 45.33894717 -39 44 C-39 43.34 -39 42.68 -39 42 C-37.390625 40.4140625 -37.390625 40.4140625 -35.25 38.625 C-34.51910156 38.00109375 -33.78820312 37.3771875 -33.03515625 36.734375 C-32.02775391 35.87585938 -32.02775391 35.87585938 -31 35 C-28.79168206 32.97073487 -27.21400113 31.380002 -25.74609375 28.7734375 C-23.63378754 25.41832025 -21.08367392 22.62119436 -18.375 19.75 C-17.84664551 19.18514893 -17.31829102 18.62029785 -16.77392578 18.03833008 C-6.16794545 6.74886746 -6.16794545 6.74886746 -3 4 C-2.34 4 -1.68 4 -1 4 C-0.67 2.68 -0.34 1.36 0 0 Z " fill="#117EA2" transform="translate(219,56)"/>
<path d="M0 0 C4.39530281 0.48836698 6.0219 1.82976452 9 5 C9.680625 5.309375 10.36125 5.61875 11.0625 5.9375 C13 7 13 7 14.375 9.375 C16.40229557 12.64986207 18.79707901 13.9082965 22 16 C24.06374661 18.36723875 25.86976698 20.81670908 27.6875 23.375 C29.78799866 25.75934983 31.70671058 27.32474772 34.25 29.1875 C37.73754536 31.80458135 40.3091042 34.46140657 42.9375 37.9375 C46.97785501 43.24652648 51.68487663 47.02883116 57 51 C59.62325363 53.01788741 62.02899938 55.02928745 64.359375 57.3828125 C67.47747307 60.47323515 70.80549998 63.16071659 74.25 65.875 C74.91386719 66.4016626 75.57773438 66.9283252 76.26171875 67.47094727 C78.17170634 68.98418427 80.08525384 70.49279134 82 72 C82.90234375 72.71285156 83.8046875 73.42570312 84.734375 74.16015625 C88.10063791 76.80093147 91.49075699 79.36452 95 81.8125 C98 84 98 84 99 86 C100.64333504 87.03789581 102.31243867 88.03567924 104 89 C105.485 89.99 105.485 89.99 107 91 C107 91.66 107 92.32 107 93 C107.55429688 93.25652344 108.10859375 93.51304688 108.6796875 93.77734375 C117.41055586 98.37795284 124.84843785 105.2983192 132 112 C135.7902902 110.49066744 137.58677989 108.31798482 140.0625 105.125 C143.56557608 100.73160724 147.16005571 96.47274696 150.9375 92.3125 C151.41002197 91.78350098 151.88254395 91.25450195 152.36938477 90.70947266 C153.53702841 89.43271334 154.76396987 88.21067566 156 87 C156.66 87 157.32 87 158 87 C158 86.34 158 85.68 158 85 C158.66 85 159.32 85 160 85 C160 84.34 160 83.68 160 83 C161.62412592 81.65232104 163.24930849 80.30590106 164.87890625 78.96484375 C167.32752368 76.69660329 169.30766817 74.24458919 171.375 71.625 C174.93870029 67.14596573 178.68926287 63.34886725 183.0546875 59.65625 C185.67164526 57.42815745 187.6564285 55.60125013 189.375 52.59375 C191.79763948 48.72684468 195.16590412 46.20500961 198.625 43.28125 C201.00278344 40.99732643 202.33643855 38.81843056 204 36 C205.76171875 34.41015625 205.76171875 34.41015625 207.6875 33.0625 C209.86470911 31.53567758 211.9514761 30.04268936 213.94921875 28.28515625 C218.65846102 24.22546464 221.88503396 23.39634251 228.09375 23.7890625 C228.7228125 23.85867187 229.351875 23.92828125 230 24 C230.38218767 25.65614657 230.71395102 27.32457024 231 29 C230 30 230 30 226.9375 30.1875 C222.69338181 30.72671174 220.1726459 32.80670421 216.91796875 35.45703125 C215 37 215 37 211.75 39 C208.55272719 41.32528932 207.1592585 43.69760465 205 47 C202.46696605 49.80660162 199.8782774 52.54536516 197 55 C196.34 55 195.68 55 195 55 C194.90589844 55.59554687 194.81179687 56.19109375 194.71484375 56.8046875 C193.83273734 59.51367002 192.772679 60.35507798 190.5625 62.125 C182.66029705 68.73617877 173.80982853 76.35444682 168.625 85.3984375 C166.83537901 88.26355187 164.83166366 90.43411336 162.4375 92.8125 C161.25994141 93.99779297 161.25994141 93.99779297 160.05859375 95.20703125 C158 97 158 97 156 97 C156 97.66 156 98.32 156 99 C154.56640625 100.33984375 154.56640625 100.33984375 152.5625 101.9375 C147.31844332 106.36539759 143.21150126 111.60888844 139 117 C139.59425781 117.24363281 140.18851563 117.48726563 140.80078125 117.73828125 C143.39684583 119.22767532 144.48252845 120.74160255 146.1875 123.1875 C149.27559898 127.31593936 152.53521821 130.15145246 156.671875 133.18359375 C160.02178517 135.79719816 162.89327436 138.81414424 165.859375 141.84765625 C171.26592512 147.44078581 171.26592512 147.44078581 178 151 C178 151.66 178 152.32 178 153 C178.721875 153.2475 179.44375 153.495 180.1875 153.75 C183.27606582 155.12269592 185.51011418 156.72353296 188 159 C188 159.66 188 160.32 188 161 C188.598125 161.26554688 189.19625 161.53109375 189.8125 161.8046875 C195.39112753 164.85300897 198.5633404 170.54187306 201.04296875 176.203125 C202.10514218 178.1974098 203.38253875 179.43831327 205 181 C205.45375 181.825 205.9075 182.65 206.375 183.5 C208.23823891 186.3665214 210.10760527 187.28019773 213 189 C213 189.99 213 190.98 213 192 C213.5775 192.0825 214.155 192.165 214.75 192.25 C217.63869579 193.2128986 218.89119161 194.82728832 221 197 C221.78375 197.433125 222.5675 197.86625 223.375 198.3125 C226.93046358 200.59815516 229.57546586 203.54233103 232 207 C232 207.66 232 208.32 232 209 C234.31 209.66 236.62 210.32 239 211 C239 212.98 239 214.96 239 217 C236.9375 217.8125 236.9375 217.8125 234 218 C229.84940922 215.85058691 225.98005903 212.57607083 223 209 C223 208.01 223 207.02 223 206 C222.40058594 205.89429688 221.80117187 205.78859375 221.18359375 205.6796875 C218.69031271 204.9036036 217.78839202 204.04690746 216.0625 202.125 C213.57773632 199.49664445 211.12351192 197.84207113 208 196 C206.31237149 194.3545622 204.6459651 192.68711423 203 191 C202.071875 190.319375 201.14375 189.63875 200.1875 188.9375 C199.465625 188.298125 198.74375 187.65875 198 187 C198 185.68 198 184.36 198 183 C197.1028125 182.6596875 197.1028125 182.6596875 196.1875 182.3125 C193.41467511 180.64880506 192.56699864 178.79334541 191 176 C190.443125 175.46375 189.88625 174.9275 189.3125 174.375 C188 173 188 173 188 170 C187.34 170 186.68 170 186 170 C185.608125 169.29875 185.21625 168.5975 184.8125 167.875 C181.48612099 162.59867468 176.59346679 159.375123 171.4375 156 C165.91100604 152.23926755 161.41886723 147.61415631 156.82202148 142.79882812 C156.25427002 142.20908203 155.68651855 141.61933594 155.1015625 141.01171875 C154.59963379 140.48022217 154.09770508 139.94872559 153.58056641 139.40112305 C151.84024034 137.85837803 150.11372909 136.95000666 148 136 C147.9175 136.86625 147.835 137.7325 147.75 138.625 C146.29066448 145.19200983 142.35304996 149.14580403 137 153 C131.92379944 155.42273208 126.52699351 155.84570689 121 155 C116.08734323 152.85551852 112.14533378 149.33909847 108 146 C107.54262451 146.47308594 107.08524902 146.94617188 106.61401367 147.43359375 C88.44304102 166.14483996 88.44304102 166.14483996 80 171 C79.34 171 78.68 171 78 171 C77.87625 171.61875 77.7525 172.2375 77.625 172.875 C77 175 77 175 75 177 C74.01 177 73.02 177 72 177 C71.67 177.99 71.34 178.98 71 180 C66.54285714 184 66.54285714 184 64 184 C63.7525 184.7425 63.505 185.485 63.25 186.25 C61.89534961 189.23023087 60.4898459 190.89919252 58 193 C57.34 193 56.68 193 56 193 C56 193.66 56 194.32 56 195 C55.401875 195.433125 54.80375 195.86625 54.1875 196.3125 C51.88826853 197.86743868 51.88826853 197.86743868 50.6875 200.25 C47.66379241 205.17752348 43.46809166 209.84125439 38 212 C35.25 211.625 35.25 211.625 33 211 C33.45434999 206.24577932 35.27775101 204.26049672 38.65625 200.98828125 C39.59597656 200.06595703 40.53570312 199.14363281 41.50390625 198.19335938 C42.50215108 197.23260193 43.50085439 196.27232064 44.5 195.3125 C46.45178086 193.41667399 48.39783951 191.5151485 50.34375 189.61328125 C51.64602539 188.35704956 51.64602539 188.35704956 52.97460938 187.07543945 C55.04413875 185.16557818 55.04413875 185.16557818 56 183 C56.66 183 57.32 183 58 183 C58.2475 182.195625 58.495 181.39125 58.75 180.5625 C59.1625 179.716875 59.575 178.87125 60 178 C61.32303717 177.6278958 62.65737935 177.29369827 64 177 C64.28875 176.360625 64.5775 175.72125 64.875 175.0625 C66 173 66 173 69 172.0625 C69.99 171.711875 70.98 171.36125 72 171 C72.69658363 169.34561387 73.36096883 167.67745682 74 166 C76.875 163.875 76.875 163.875 80 162 C80.7425 161.4225 81.485 160.845 82.25 160.25 C84 159 84 159 86 159 C86.25652344 158.40574219 86.51304688 157.81148437 86.77734375 157.19921875 C88.11709565 154.78937747 89.4373243 153.55128012 91.5625 151.8125 C92.62017578 150.89597656 92.62017578 150.89597656 93.69921875 149.9609375 C95.26345298 148.62775315 96.85062698 147.32112123 98.45703125 146.0390625 C104.76487469 140.55663961 105.78310688 136.51404658 106.5078125 128.3125 C107.24895889 123.32446718 109.22928929 120.28059736 113 117 C115.89644707 115.07691034 118.84565625 113.45800778 122 112 C111.15279408 102.66325247 111.15279408 102.66325247 99.1875 94.875 C96 93 96 93 94 90 C93.13375 89.484375 92.2675 88.96875 91.375 88.4375 C90.59125 87.963125 89.8075 87.48875 89 87 C89 86.34 89 85.68 89 85 C88.34 85 87.68 85 87 85 C87 84.34 87 83.68 87 83 C86.41532959 82.72397949 85.83065918 82.44795898 85.22827148 82.16357422 C81.53883132 80.23699683 78.35956681 77.65035065 75.0625 75.125 C74.30686768 74.54782227 73.55123535 73.97064453 72.77270508 73.37597656 C67.45101952 69.25530928 62.47490243 64.89553688 57.61474609 60.24511719 C54.16182439 56.97141287 50.57165381 54.14245959 46.6875 51.375 C41.90246595 47.90350471 38.63898572 44.27650802 35.140625 39.55078125 C31.80854601 35.58025646 27.82576417 32.58051223 23.734375 29.421875 C21 27 21 27 18.953125 23.890625 C16.81916545 20.73236487 15.26281226 19.85495158 12 18 C9.59276034 15.99036546 7.36117181 13.82159354 5.125 11.625 C4.51914062 11.06039063 3.91328125 10.49578125 3.2890625 9.9140625 C1.6818769 8.33609846 0.24995513 6.87435454 -1 5 C-0.8828125 2.0859375 -0.8828125 2.0859375 0 0 Z " fill="#E6281D" transform="translate(24,1)"/>
<path d="M0 0 C5.22654901 1.47642627 8.16826439 4.82231936 11.8125 8.625 C12.40998047 9.23601562 13.00746094 9.84703125 13.62304688 10.4765625 C15.08895106 11.97764839 16.54542993 13.48792862 18 15 C7.61111111 37.19444444 7.61111111 37.19444444 2 40 C0.55191567 40.12450683 -0.90147575 40.19006373 -2.35449219 40.22460938 C-3.70664825 40.25838684 -3.70664825 40.25838684 -5.08612061 40.29284668 C-9.21553187 40.36384235 -13.34476253 40.42137587 -17.47460938 40.45996094 C-19.65126549 40.48656884 -21.82779547 40.52749478 -24.00390625 40.58300781 C-27.14374698 40.66217148 -30.28118238 40.69527405 -33.421875 40.71875 C-34.39082703 40.75174194 -35.35977905 40.78473389 -36.35809326 40.81872559 C-42.87699758 40.79947671 -42.87699758 40.79947671 -45.81311035 38.70922852 C-49.73622644 34.38722019 -52.18195691 29.07247756 -55 24 C-50.05 19.05 -45.1 14.1 -40 9 C-36.535 11.97 -36.535 11.97 -33 15 C-27.24571483 18.83619011 -21.42232805 18.86727635 -14.7890625 17.56640625 C-9.34894777 15.88851646 -6.0169407 12.77447314 -3 8 C-1.77351898 5.35265228 -0.88185598 2.79254393 0 0 Z " fill="#F9FCFD" transform="translate(172,137)"/>
<path d="M0 0 C3.16701337 9.5010401 1.59899922 22.85478184 -2 32 C-4.67816613 37.17932702 -7.45109209 41.66361772 -13 44 C-22.4039874 46.76587865 -31.56772974 44.75352873 -40.12109375 40.41796875 C-45.46377339 37.41638986 -49.77305944 34.48101895 -54 30 C-53.38253906 29.40574219 -52.76507813 28.81148437 -52.12890625 28.19921875 C-46.65096478 22.83800662 -41.67647691 17.35962151 -36.91015625 11.34765625 C-33.61090927 7.29275352 -31.89102135 5.6770829 -26.6328125 4.6484375 C-25.58222656 4.43703125 -24.53164062 4.225625 -23.44921875 4.0078125 C-22.35222656 3.79898438 -21.25523437 3.59015625 -20.125 3.375 C-19.03574219 3.1584375 -17.94648438 2.941875 -16.82421875 2.71875 C-13.88464114 2.1358717 -10.94263033 1.56720954 -8 1 C-6.68104736 0.71890381 -6.68104736 0.71890381 -5.33544922 0.43212891 C-3 0 -3 0 0 0 Z " fill="#F8FDFD" transform="translate(213,180)"/>
<path d="M0 0 C3.66488614 0.79872473 3.66488614 0.79872473 7.4296875 1.09375 C17.47279889 2.2910788 21.94989379 5.88032806 28.0703125 13.4296875 C28.51358887 13.9959082 28.95686523 14.56212891 29.41357422 15.14550781 C31.09681143 17.2775646 32.90957456 19.2821069 34.73046875 21.296875 C36.83055462 23.69620975 38.77541205 26.16791086 40.66796875 28.734375 C30.27402845 37.24833026 18.50673055 44.089821 4.61328125 43.3046875 C-1.40355569 42.13962358 -5.48166854 39.46218243 -8.921875 34.390625 C-13.09555618 26.55136296 -14.51259969 19.28305052 -14.76953125 10.484375 C-14.80409424 9.78618652 -14.83865723 9.08799805 -14.87426758 8.36865234 C-14.90387793 4.70315576 -14.58302451 3.02712482 -12.171875 0.21484375 C-7.75870626 -2.08583157 -4.72591584 -0.96120322 0 0 Z " fill="#F9FDFD" transform="translate(102.33203125,182.265625)"/>
<path d="M0 0 C11.7120659 3.58638704 23.68261682 11.1210215 30.625 21.4375 C32.68613065 26.77770214 33.08792392 31.71295713 31.26953125 37.20703125 C27.81054565 44.59090663 22.91956162 49.50240427 16.0625 53.6875 C15.17014648 54.25307617 15.17014648 54.25307617 14.25976562 54.83007812 C4.40727258 61 4.40727258 61 0 61 C-0.16604736 60.43603516 -0.33209473 59.87207031 -0.50317383 59.29101562 C-1.26993864 56.69311112 -2.04119077 54.09655875 -2.8125 51.5 C-3.07353516 50.613125 -3.33457031 49.72625 -3.60351562 48.8125 C-4.82187509 44.72121882 -6.0755171 40.76702396 -7.76171875 36.84375 C-10.6451603 29.22479915 -7.04646902 21.52124288 -4.5 14.25 C-3.86336605 12.40146045 -3.2279031 10.55251709 -2.59375 8.703125 C-2.31208984 7.89520508 -2.03042969 7.08728516 -1.74023438 6.25488281 C-1.06027038 4.18359408 -0.49789172 2.12150449 0 0 Z " fill="#F9FDFD" transform="translate(220,104)"/>
<path d="M0 0 C0.16604736 0.56396484 0.33209473 1.12792969 0.50317383 1.70898438 C1.26993864 4.30688888 2.04119077 6.90344125 2.8125 9.5 C3.07353516 10.386875 3.33457031 11.27375 3.60351562 12.1875 C4.82187509 16.27878118 6.0755171 20.23297604 7.76171875 24.15625 C10.46438307 31.25208623 7.46424066 38.27196707 5.0625 45.0625 C4.53112771 46.5945588 4.00115889 48.12710516 3.47265625 49.66015625 C3.2214502 50.38734863 2.97024414 51.11454102 2.71142578 51.86376953 C1.70566372 54.88381689 0.84366117 57.93102967 0 61 C-4.5036321 60.41367809 -8.01113888 58.57366297 -11.875 56.3125 C-12.49560303 55.95091797 -13.11620605 55.58933594 -13.75561523 55.21679688 C-22.28645704 50.14919207 -28.77686346 44.66940963 -32 35 C-32.7839378 29.50251212 -32.56001785 25.14453116 -29.5625 20.375 C-23.6582107 12.59828562 -10.66719943 0 0 0 Z " fill="#F9FDFE" transform="translate(82,104)"/>
<path d="M0 0 C0.71003174 0.00644531 1.42006348 0.01289062 2.15161133 0.01953125 C8.76470066 0.24707841 13.69515933 2.10339073 19.375 5.5 C19.94476563 5.83725098 20.51453125 6.17450195 21.1015625 6.52197266 C24.90272547 8.78144054 28.65139662 11.11428909 32.375 13.5 C30.79558944 17.40314105 28.26788026 19.74162137 25.25 22.625 C20.15367745 27.57294326 15.66650981 32.83127214 11.375 38.5 C7.16588315 38.02573331 4.77683498 37.48537148 1.75 34.5 C-1.59546512 31.37327683 -5.0680814 28.59998431 -8.75 25.875 C-12.82042279 22.86082616 -16.78758583 19.80443998 -20.625 16.5 C-16.81635304 6.47724485 -11.44432708 -0.10872179 0 0 Z " fill="#FAFCFD" transform="translate(110.625,44.5)"/>
<path d="M0 0 C4.06474666 0.59176503 6.60237265 2.72736389 9.8125 5.1875 C10.60382324 5.7916272 10.60382324 5.7916272 11.41113281 6.40795898 C15.397168 9.47324693 19.23802441 12.66552164 23 16 C21.297302 17.135132 19.58473013 18.25653447 17.84375 19.33203125 C17.0703125 19.82058594 16.296875 20.30914062 15.5 20.8125 C14.7265625 21.29332031 13.953125 21.77414063 13.15625 22.26953125 C10.59096062 24.32826893 9.36873232 26.0069809 8 29 C7.85744676 31.12185014 7.77974022 33.2485746 7.75 35.375 C6.62935603 45.17025843 -0.37732976 50.56254598 -7.42773438 56.84521484 C-9 58 -9 58 -11 58 C-12.77976473 55.04842557 -14.48836663 52.06110199 -16.1875 49.0625 C-16.68958984 48.23169922 -17.19167969 47.40089844 -17.70898438 46.54492188 C-21.12337696 40.40856597 -21.12337696 40.40856597 -20.79614258 36.67260742 C-20.05652996 34.30260786 -19.13241811 32.20869338 -18 30 C-17.64526611 29.27482178 -17.29053223 28.54964355 -16.92504883 27.80249023 C-15.77788221 25.56071989 -14.56168405 23.37393146 -13.3125 21.1875 C-12.87695801 20.4135791 -12.44141602 19.6396582 -11.99267578 18.84228516 C-8.29595828 12.34979879 -4.29355146 6.11651186 0 0 Z " fill="#F9FCFC" transform="translate(124,97)"/>
<path d="M0 0 C3.6161764 3.07759693 6.5172152 6.40413342 8.9375 10.5 C8.9375 11.16 8.9375 11.82 8.9375 12.5 C7.5390625 13.62109375 7.5390625 13.62109375 5.5625 14.9375 C-0.92283016 19.63219033 -6.05950951 25.79281988 -11.078125 31.98828125 C-11.67109375 32.71402344 -12.2640625 33.43976563 -12.875 34.1875 C-13.37644531 34.83074219 -13.87789062 35.47398438 -14.39453125 36.13671875 C-16.0625 37.5 -16.0625 37.5 -18.37109375 38.140625 C-22.69474949 37.11148198 -24.61757575 33.93966328 -27.3125 30.5625 C-28.45412522 29.18248663 -29.59866416 27.80487853 -30.74609375 26.4296875 C-31.30538574 25.75647461 -31.86467773 25.08326172 -32.44091797 24.38964844 C-35.27316913 21.08919316 -38.38691512 18.11881878 -41.55078125 15.13671875 C-43.0625 13.5 -43.0625 13.5 -43.0625 11.5 C-40.59409217 9.75354154 -38.13451011 8.14264451 -35.5625 6.5625 C-34.86640625 6.11970703 -34.1703125 5.67691406 -33.453125 5.22070312 C-23.82565563 -0.76080794 -11.04038575 -5.5448366 0 0 Z " fill="#FAFCFD" transform="translate(202.0625,46.5)"/>
<path d="M0 0 C4.30533914 1.46279917 7.12166209 4.7476679 10.37915039 7.80834961 C11.64758789 8.79834961 11.64758789 8.79834961 12.94165039 9.80834961 C14.37915039 11.80834961 14.37915039 11.80834961 14.37915039 15.18334961 C12.54236317 21.8417033 8.92925968 25.81227092 3.37915039 29.80834961 C-1.70279383 32.23382299 -7.08828869 32.64506407 -12.62084961 31.80834961 C-17.80740185 29.65912762 -21.44335787 26.44219173 -24.62084961 21.80834961 C-23.97116211 21.16639648 -23.32147461 20.52444336 -22.65209961 19.86303711 C-20.25465515 17.47065767 -17.92038307 15.02343058 -15.58959961 12.56616211 C-14.10035479 11.02156482 -12.61076335 9.47730167 -11.12084961 7.93334961 C-10.00129883 6.73838867 -10.00129883 6.73838867 -8.85913086 5.51928711 C-8.13081055 4.77163086 -7.40249023 4.02397461 -6.65209961 3.25366211 C-5.99790039 2.56804199 -5.34370117 1.88242188 -4.66967773 1.17602539 C-2.62084961 -0.19165039 -2.62084961 -0.19165039 0 0 Z " fill="#0E7CA0" transform="translate(157.620849609375,124.191650390625)"/>
<path d="M0 0 C3.48122356 1.16040785 3.70629418 1.70195414 5.453125 4.76171875 C5.90469971 5.54458252 6.35627441 6.32744629 6.8215332 7.1340332 C7.29292725 7.97667725 7.76432129 8.81932129 8.25 9.6875 C8.73364014 10.5436792 9.21728027 11.3998584 9.71557617 12.28198242 C11.15546641 14.848306 12.57818769 17.42362952 14 20 C14.40492676 20.71704102 14.80985352 21.43408203 15.22705078 22.17285156 C16.278563 24.04129026 17.3008197 25.922269 18.3125 27.8125 C19.17294922 29.39998047 19.17294922 29.39998047 20.05078125 31.01953125 C21.59965838 35.88287797 19.4960685 38.96970389 17.375 43.375 C16.92125 44.24125 16.4675 45.1075 16 46 C12.20898297 44.44515891 9.92953242 42.0693222 7.125 39.125 C3.60857592 35.52092312 0.20315611 32.77026198 -4 30 C-5.59690336 28.30867819 -7.07170156 26.55123477 -8.54296875 24.75 C-10.5513938 22.33773613 -12.74876521 20.185022 -15 18 C-13.34890181 13.93122232 -10.46404222 11.02285879 -7.5 7.875 C-7.00113281 7.33746094 -6.50226563 6.79992187 -5.98828125 6.24609375 C-4.02214504 4.13236554 -2.04136111 2.04136111 0 0 Z " fill="#FAFBFB" transform="translate(178,100)"/>
<path d="M0 0 C1.24845703 -0.00128906 2.49691406 -0.00257812 3.78320312 -0.00390625 C5.72163086 0.00189453 5.72163086 0.00189453 7.69921875 0.0078125 C8.97990234 0.00394531 10.26058594 0.00007813 11.58007812 -0.00390625 C18.26776207 0.00297762 24.75966526 0.222225 31.38671875 1.1328125 C29.55647289 5.07475865 26.97919485 7.94274888 24.01171875 11.0703125 C20.64256747 14.65116179 17.40804676 18.24517954 14.38671875 22.1328125 C11.21187634 20.72177143 9.02400346 19.01801666 6.51171875 16.6328125 C1.92346605 12.4442066 -2.99065205 8.89721675 -8.09130859 5.37109375 C-9.61364814 4.31294847 -11.11566447 3.22566799 -12.61328125 2.1328125 C-12.61328125 1.8028125 -12.61328125 1.4728125 -12.61328125 1.1328125 C-8.35572367 0.32349481 -4.33139629 0.0043379 0 0 Z " fill="#F8F9F9" transform="translate(143.61328125,91.8671875)"/>
<path d="M0 0 C1.27132649 3.81397948 1.14512624 7.40342217 1.125 11.375 C1.13080078 12.50808594 1.13080078 12.50808594 1.13671875 13.6640625 C1.12987994 17.57585931 0.95875152 21.18021219 0 25 C-6.66666667 23.66666667 -13.33333333 22.33333333 -20 21 C-18.30636743 16.734555 -15.22622172 13.7797093 -12.125 10.5 C-11.59519531 9.93152344 -11.06539062 9.36304687 -10.51953125 8.77734375 C-9.02216749 7.17594479 -7.51273831 5.58686144 -6 4 C-5.25492188 3.2059375 -4.50984375 2.411875 -3.7421875 1.59375 C-2 0 -2 0 0 0 Z " fill="#FBFBFA" transform="translate(213,65)"/>
<path d="M0 0 C3.28339642 1.43648593 5.48183435 3.21216118 8 5.75 C8.99 6.73226562 8.99 6.73226562 10 7.734375 C12 10 12 10 16 16 C6.1 16 -3.8 16 -14 16 C-7.25 7 -7.25 7 -3.625 3.5 C-2.93664062 2.8296875 -2.24828125 2.159375 -1.5390625 1.46875 C-1.03117188 0.9840625 -0.52328125 0.499375 0 0 Z " fill="#E9F6F9" transform="translate(150,66)"/>
<path d="M0 0 C2.83125511 1.33311624 5.28410048 2.83721362 7.78515625 4.71484375 C8.48060547 5.23626953 9.17605469 5.75769531 9.89257812 6.29492188 C10.60865234 6.83697266 11.32472656 7.37902344 12.0625 7.9375 C12.78244141 8.47568359 13.50238281 9.01386719 14.24414062 9.56835938 C17.35240484 11.90893717 20.2973399 14.19045797 23 17 C19.70929159 17.83714909 16.41728353 18.66906896 13.125 19.5 C12.18785156 19.73847656 11.25070313 19.97695312 10.28515625 20.22265625 C9.38925781 20.44824219 8.49335937 20.67382812 7.5703125 20.90625 C6.74289551 21.11572266 5.91547852 21.32519531 5.06298828 21.54101562 C3 22 3 22 1 22 C-0.17700048 17.37540756 -0.11408412 12.92133538 -0.0625 8.1875 C-0.05573242 7.00510742 -0.05573242 7.00510742 -0.04882812 5.79882812 C-0.03711312 3.86585239 -0.01917998 1.93291607 0 0 Z " fill="#F1F7F8" transform="translate(88,68)"/>
<path d="M0 0 C-1.92952429 3.44203533 -3.86997255 6.87778883 -5.8125 10.3125 C-6.63331055 11.77719727 -6.63331055 11.77719727 -7.47070312 13.27148438 C-8.26831055 14.67817383 -8.26831055 14.67817383 -9.08203125 16.11328125 C-9.56905518 16.97735596 -10.0560791 17.84143066 -10.55786133 18.73168945 C-11.87603675 20.80502073 -13.18768386 22.35692739 -15 24 C-15.84479453 21.62854106 -16.67593283 19.25365876 -17.5 16.875 C-17.73847656 16.20984375 -17.97695312 15.5446875 -18.22265625 14.859375 C-19.62708806 10.76645945 -20.27343814 7.38868208 -20 3 C-17.41932437 2.30081695 -14.83627153 1.61538951 -12.25 0.9375 C-11.15558594 0.63875977 -11.15558594 0.63875977 -10.0390625 0.33398438 C-6.28968956 -0.63744407 -3.69725762 -1.15449387 0 0 Z " fill="#EDFAFC" transform="translate(112,97)"/>
<path d="M0 0 C9.24 0 18.48 0 28 0 C25.96986589 4.06026821 23.57604446 6.65457376 20.375 9.75 C19.859375 10.25660156 19.34375 10.76320312 18.8125 11.28515625 C17.54616661 12.52803902 16.2736856 13.76465276 15 15 C10.96918 13.387672 8.24055863 10.53765404 5.25 7.5 C4.74339844 7.00113281 4.23679688 6.50226563 3.71484375 5.98828125 C0 2.25341139 0 2.25341139 0 0 Z " fill="#F9FEFE" transform="translate(137,188)"/>
<path d="M0 0 C7.03128878 0.43384548 13.329015 1.74321997 20 4 C19.42351925 11.35012956 17.28953836 18.01424576 15 25 C12.65188995 22.83457266 11.12163256 20.70669002 9.58984375 17.91015625 C8.94112305 16.73356445 8.94112305 16.73356445 8.27929688 15.53320312 C7.83650391 14.71787109 7.39371094 13.90253906 6.9375 13.0625 C6.26750977 11.84530273 6.26750977 11.84530273 5.58398438 10.60351562 C3.65976647 7.09735474 1.77163883 3.58614397 0 0 Z " fill="#EEFAFC" transform="translate(190,96)"/>
<path d="M0 0 C0 0.66 0 1.32 0 2 C0.66 2 1.32 2 2 2 C2.33 3.32 2.66 4.64 3 6 C1.824375 6.12375 1.824375 6.12375 0.625 6.25 C-0.674375 6.62125 -0.674375 6.62125 -2 7 C-2.26941406 7.55945313 -2.53882813 8.11890625 -2.81640625 8.6953125 C-4.46989485 11.91497677 -6.97897976 14.15064259 -9.5625 16.625 C-13.22714016 19.96402902 -13.22714016 19.96402902 -16 24 C-16.66 24 -17.32 24 -18 24 C-18.37159104 16.93977019 -17.18502954 12.35558108 -13.25 6.3125 C-9.36563415 2.32023509 -5.72470037 0 0 0 Z " fill="#137A9D" transform="translate(148,114)"/>
<path d="M0 0 C2.43986543 2.25273711 4.13659937 4.5734969 5.8125 7.4375 C6.27269531 8.19933594 6.73289062 8.96117187 7.20703125 9.74609375 C8 12 8 12 7.296875 14.18359375 C5.59119669 16.57257091 3.53321202 17.57100861 1 19 C0.67 19.66 0.34 20.32 0 21 C-1.65 21 -3.3 21 -5 21 C-5.27908468 15.57878002 -4.42721053 11.62142765 -2.5 6.5625 C-2.26152344 5.92634766 -2.02304688 5.29019531 -1.77734375 4.63476562 C-1.19509076 3.08597268 -0.59898931 1.54239747 0 0 Z " fill="#EDF7F8" transform="translate(97,149)"/>
<path d="M0 0 C3.77136398 1.28968924 6.08071021 2.7325167 8.8125 5.625 C9.41707031 6.25664062 10.02164063 6.88828125 10.64453125 7.5390625 C11.09183594 8.02117187 11.53914063 8.50328125 12 9 C11.67 9.66 11.34 10.32 11 11 C8.37109028 11.80572848 5.7963755 12.49780749 3.125 13.125 C2.39152344 13.30675781 1.65804687 13.48851562 0.90234375 13.67578125 C-2.13000439 14.41039382 -4.86921325 15 -8 15 C-6.62712658 11.30123909 -4.93644547 8.0485524 -2.875 4.6875 C-2.33617187 3.80449219 -1.79734375 2.92148438 -1.2421875 2.01171875 C-0.83226562 1.34785156 -0.42234375 0.68398437 0 0 Z " fill="#F1F8F9" transform="translate(198,159)"/>
<path d="M0 0 C4.39530281 0.48836698 6.0219 1.82976452 9 5 C11.13309192 6.23512079 11.13309192 6.23512079 13 7 C12.67 7.99 12.34 8.98 12 10 C11.67 9.34 11.34 8.68 11 8 C9.36209288 6.95355934 7.68991979 5.9601817 6 5 C4.33333333 4 2.66666667 3 1 2 C3.24332063 6.14035686 6.04191189 9.34596196 9.375 12.625 C10.07882813 13.34042969 10.07882813 13.34042969 10.796875 14.0703125 C13.65847243 16.9161 16.54378266 18.95573646 20 21 C20.8125 23.1875 20.8125 23.1875 21 25 C20.443125 24.401875 19.88625 23.80375 19.3125 23.1875 C17.15584079 20.96827012 17.15584079 20.96827012 14.78515625 19.76171875 C11.12713973 17.44788221 8.20371237 14.64922189 5.125 11.625 C4.51914062 11.06039063 3.91328125 10.49578125 3.2890625 9.9140625 C1.6818769 8.33609846 0.24995513 6.87435454 -1 5 C-0.8828125 2.0859375 -0.8828125 2.0859375 0 0 Z " fill="#D42F25" transform="translate(24,1)"/>
<path d="M0 0 C0.66 0 1.32 0 2 0 C2 0.99 2 1.98 2 3 C1.34 3 0.68 3 0 3 C-0.12375 3.61875 -0.2475 4.2375 -0.375 4.875 C-1 7 -1 7 -3 9 C-3.37135915 11.52037964 -3.37135915 11.52037964 -3.4140625 14.4453125 C-3.45273438 15.52167969 -3.49140625 16.59804687 -3.53125 17.70703125 C-3.5621875 18.83496094 -3.593125 19.96289062 -3.625 21.125 C-3.66367188 22.26066406 -3.70234375 23.39632812 -3.7421875 24.56640625 C-3.83667601 27.37743956 -3.92223541 30.18846233 -4 33 C-4.99 33.495 -4.99 33.495 -6 34 C-5.99476318 33.35450195 -5.98952637 32.70900391 -5.98413086 32.04394531 C-5.96331343 29.11264015 -5.95032466 26.18135057 -5.9375 23.25 C-5.92912109 22.23421875 -5.92074219 21.2184375 -5.91210938 20.171875 C-5.90888672 19.1921875 -5.90566406 18.2125 -5.90234375 17.203125 C-5.89710693 16.30239258 -5.89187012 15.40166016 -5.88647461 14.47363281 C-5.9047743 12.01900674 -5.9047743 12.01900674 -6.61938477 9.81542969 C-6.74498779 9.21633789 -6.87059082 8.61724609 -7 8 C-5.1875 5.75 -5.1875 5.75 -3 4 C-2.34 4 -1.68 4 -1 4 C-0.67 2.68 -0.34 1.36 0 0 Z " fill="#1E7896" transform="translate(219,56)"/>
<path d="M0 0 C2.76223278 2.76223278 2.57856291 5.20706617 3 9 C3.99 9 4.98 9 6 9 C6 9.66 6 10.32 6 11 C5.34 11 4.68 11 4 11 C4.99 12.485 4.99 12.485 6 14 C6 14.99 6 15.98 6 17 C7.65 17 9.3 17 11 17 C10.34 17.66 9.68 18.32 9 19 C7.0625 18.9375 7.0625 18.9375 5 18 C3.5625 15.8125 3.5625 15.8125 2 13 C0.39507826 10.9406727 -1.29623118 8.98005566 -3 7 C-2.34 6.67 -1.68 6.34 -1 6 C-0.34 6.33 0.32 6.66 1 7 C0.67 4.69 0.34 2.38 0 0 Z " fill="#38708B" transform="translate(217,156)"/>
<path d="M0 0 C2.31 1.65 4.62 3.3 7 5 C5 6 5 6 1 5 C0.67 12.92 0.34 20.84 0 29 C-0.33 29 -0.66 29 -1 29 C-1.02891546 24.54168018 -1.04676981 20.08338431 -1.0625 15.625 C-1.07087891 14.35398437 -1.07925781 13.08296875 -1.08789062 11.7734375 C-1.09111328 10.56171875 -1.09433594 9.35 -1.09765625 8.1015625 C-1.10289307 6.98088379 -1.10812988 5.86020508 -1.11352539 4.70556641 C-1 2 -1 2 0 0 Z " fill="#2D7894" transform="translate(80,60)"/>
<path d="M0 0 C0.33 0 0.66 0 1 0 C1.0270817 2.72923388 1.04687847 5.45819637 1.0625 8.1875 C1.07087891 8.95642578 1.07925781 9.72535156 1.08789062 10.51757812 C1.10491934 14.48526789 0.98604115 18.12571234 0 22 C-1.58467728 21.71572583 -3.1677057 21.42225182 -4.75 21.125 C-5.63171875 20.96257812 -6.5134375 20.80015625 -7.421875 20.6328125 C-10 20 -10 20 -14 18 C-10.37 18.33 -6.74 18.66 -3 19 C-0.86608597 12.74051886 -0.41044485 6.57791873 0 0 Z " fill="#BDE3EB" transform="translate(213,68)"/>
<path d="M0 0 C0.33 0.66 0.66 1.32 1 2 C0.26202611 3.42494959 -0.54297163 4.81534272 -1.375 6.1875 C-4.94483233 12.92172665 -4.89009127 19.50622302 -5 27 C-7.46196877 22.61769559 -7.65581578 18.93837186 -7 14 C-5.3543671 8.99824877 -2.85000485 4.41750751 0 0 Z " fill="#3186A1" transform="translate(46,115)"/>
<path d="M0 0 C0 4.33174693 -2.65822583 6.22353653 -5.5 9.1875 C-6.28697266 10.02571289 -6.28697266 10.02571289 -7.08984375 10.88085938 C-8.38661613 12.26015364 -9.69246259 13.63090644 -11 15 C-12.32 14.67 -13.64 14.34 -15 14 C-13.71034824 12.62437146 -12.37310707 11.29233607 -11 10 C-10.34 10 -9.68 10 -9 10 C-9 9.34 -9 8.68 -9 8 C-8.34 8 -7.68 8 -7 8 C-7 7.34 -7 6.68 -7 6 C-5.46875 4.4921875 -5.46875 4.4921875 -3.5 2.875 C-2.8503125 2.33617188 -2.200625 1.79734375 -1.53125 1.2421875 C-0.77328125 0.62730469 -0.77328125 0.62730469 0 0 Z " fill="#C33533" transform="translate(191,78)"/>
<path d="M0 0 C0.33 0.66 0.66 1.32 1 2 C0.52949219 2.53109375 0.05898437 3.0621875 -0.42578125 3.609375 C-1.04839844 4.31578125 -1.67101562 5.0221875 -2.3125 5.75 C-2.92738281 6.44609375 -3.54226562 7.1421875 -4.17578125 7.859375 C-6.71981623 10.83018478 -6.71981623 10.83018478 -9 14 C-8.77802187 16.6984589 -8.77802187 16.6984589 -8 19 C-11.39914975 17.86695008 -12.05254451 16.87481525 -14 14 C-13.43667969 13.78472656 -12.87335938 13.56945312 -12.29296875 13.34765625 C-9.22224679 11.54288781 -7.51240254 9.22646735 -5.3125 6.4375 C-4.52488281 5.44621094 -3.73726562 4.45492187 -2.92578125 3.43359375 C-2.29027344 2.63050781 -1.65476563 1.82742187 -1 1 C-0.67 0.67 -0.34 0.34 0 0 Z " fill="#337E99" transform="translate(133,69)"/>
<path d="M0 0 C9.24 0 18.48 0 28 0 C27.67 0.99 27.34 1.98 27 3 C26.67 2.34 26.34 1.68 26 1 C18.41 1 10.82 1 3 1 C2.67 1.99 2.34 2.98 2 4 C1.34 2.68 0.68 1.36 0 0 Z " fill="#DAF7FB" transform="translate(137,188)"/>
<path d="M0 0 C3.3 0 6.6 0 10 0 C10.38218767 1.65614657 10.71395102 3.32457024 11 5 C9.03033098 6.96966902 5.64412463 6.68088151 3 7 C2.01 7 1.02 7 0 7 C1.125 5.5 1.125 5.5 3 4 C6.1875 3.8125 6.1875 3.8125 9 4 C9 3.01 9 2.02 9 1 C6.03 1 3.06 1 0 1 C0 0.67 0 0.34 0 0 Z " fill="#CE3228" transform="translate(244,25)"/>
<path d="M0 0 C-1.40844718 3.21524305 -3.10344786 5.32183868 -5.625 7.75 C-6.57246094 8.67039062 -6.57246094 8.67039062 -7.5390625 9.609375 C-8.02117187 10.06828125 -8.50328125 10.5271875 -9 11 C-9.66 10.67 -10.32 10.34 -11 10 C-10.06862408 8.70391053 -9.1296434 7.41328368 -8.1875 6.125 C-7.66542969 5.40570313 -7.14335937 4.68640625 -6.60546875 3.9453125 C-4.67810267 1.60996382 -3.15532658 0 0 0 Z " fill="#2381A0" transform="translate(142,116)"/>
<path d="M0 0 C0 3.90977459 -1.24456118 4.81418467 -3.8125 7.6875 C-4.52019531 8.49574219 -5.22789062 9.30398437 -5.95703125 10.13671875 C-8 12 -8 12 -11 12 C-11.33 13.32 -11.66 14.64 -12 16 C-12.33 15.34 -12.66 14.68 -13 14 C-11.00909576 9.8435508 -8.25997316 7.18724937 -4.8125 4.1875 C-3.91144531 3.39730469 -3.01039063 2.60710938 -2.08203125 1.79296875 C-1.39496094 1.20128906 -0.70789063 0.60960937 0 0 Z " fill="#B63B3A" transform="translate(225,42)"/>
<path d="M0 0 C0.66 0.33 1.32 0.66 2 1 C1.52949219 1.51949219 1.05898438 2.03898437 0.57421875 2.57421875 C-2.70444665 6.24659552 -5.48191494 9.75901463 -8 14 C-8.66 14 -9.32 14 -10 14 C-8.38798165 8.2683792 -4.12110332 4.12110332 0 0 Z " fill="#DBF5F9" transform="translate(61,115)"/>
<path d="M0 0 C0.66 0.33 1.32 0.66 2 1 C0.57282151 2.67551353 -0.86708482 4.34019309 -2.3125 6 C-3.51326172 7.3921875 -3.51326172 7.3921875 -4.73828125 8.8125 C-7 11 -7 11 -10 11 C-6.79239749 7.19364503 -3.59253891 3.45436433 0 0 Z " fill="#CFEDF4" transform="translate(150,66)"/>
<path d="M0 0 C0 3 0 3 -1 5 C0.98 5 2.96 5 5 5 C5.33 5.66 5.66 6.32 6 7 C4.35333797 6.8864371 2.70763918 6.75882619 1.0625 6.625 C-0.31228516 6.52058594 -0.31228516 6.52058594 -1.71484375 6.4140625 C-2.84599609 6.20910156 -2.84599609 6.20910156 -4 6 C-4.33 5.34 -4.66 4.68 -5 4 C-3.74458443 1.48916886 -2.49936512 1.12874554 0 0 Z " fill="#317691" transform="translate(100,176)"/>
<path d="M0 0 C0.66 0.33 1.32 0.66 2 1 C-3.16923077 6.78461538 -3.16923077 6.78461538 -7.375 7.875 C-8.674375 7.936875 -8.674375 7.936875 -10 8 C-9.67 7.34 -9.34 6.68 -9 6 C-8.01 6 -7.02 6 -6 6 C-5.7525 5.38125 -5.505 4.7625 -5.25 4.125 C-3.78043163 1.62673377 -2.71435596 0.93305986 0 0 Z " fill="#A34247" transform="translate(94,172)"/>
<path d="M0 0 C0.66 0 1.32 0 2 0 C2 0.99 2 1.98 2 3 C1.34 3 0.68 3 0 3 C-0.12375 3.61875 -0.2475 4.2375 -0.375 4.875 C-1 7 -1 7 -3 9 C-5.125 8.625 -5.125 8.625 -7 8 C-5.71034824 6.62437146 -4.37310707 5.29233607 -3 4 C-2.34 4 -1.68 4 -1 4 C-0.67 2.68 -0.34 1.36 0 0 Z " fill="#6C5868" transform="translate(219,56)"/>
<path d="M0 0 C1.37562854 1.28965176 2.70766393 2.62689293 4 4 C4 4.66 4 5.32 4 6 C1.6568787 5.74438677 -0.67843403 5.40729228 -3 5 C-3.33 4.34 -3.66 3.68 -4 3 C-2.68 2.01 -1.36 1.02 0 0 Z " fill="#DBEDF2" transform="translate(108,168)"/>
<path d="M0 0 C3.45925163 1.2491742 6.14693203 2.67527795 9 5 C8.67 5.99 8.34 6.98 8 8 C7.34 7.01 6.68 6.02 6 5 C3.58333333 4.08333333 3.58333333 4.08333333 1 4 C0.01 4.66 -0.98 5.32 -2 6 C-1.34 4.02 -0.68 2.04 0 0 Z " fill="#40738C" transform="translate(189,153)"/>
<path d="M0 0 C2.86697492 1.28519565 4.97607712 2.57129254 7 5 C7 5.66 7 6.32 7 7 C7.66 7 8.32 7 9 7 C9.33 8.32 9.66 9.64 10 11 C6.12217555 9.52910107 4.95637068 7.57250298 3 4 C2.01755155 2.65368175 1.02323436 1.31558703 0 0 Z " fill="#954750" transform="translate(212,173)"/>
<path d="M0 0 C0.66 0 1.32 0 2 0 C0.42527704 4.46171506 -1.59377029 9.79688514 -6 12 C-4.43358249 7.69235185 -2.31663844 3.93828536 0 0 Z " fill="#29829F" transform="translate(111,97)"/>
<path d="M0 0 C0.66 0.33 1.32 0.66 2 1 C1.0409375 1.86625 1.0409375 1.86625 0.0625 2.75 C-1.98223868 4.98062401 -2.58205199 6.07436391 -3 9 C-4.5 7.625 -4.5 7.625 -6 6 C-6 5.34 -6 4.68 -6 4 C-4.03852126 2.61061923 -2.03833424 1.2739589 0 0 Z " fill="#D3F1F8" transform="translate(165,54)"/>
<path d="M0 0 C0.66 0 1.32 0 2 0 C0.55746343 3.36591866 -1.33264727 5.51047079 -4 8 C-4.66 7.67 -5.32 7.34 -6 7 C-5.04882866 5.8274869 -4.08882991 4.66212985 -3.125 3.5 C-2.59132813 2.8503125 -2.05765625 2.200625 -1.5078125 1.53125 C-0.76144531 0.77328125 -0.76144531 0.77328125 0 0 Z " fill="#DAF4F9" transform="translate(98,48)"/>
<path d="M0 0 C3.36720387 1.39332574 4.9859524 2.9789286 7 6 C6.67 6.66 6.34 7.32 6 8 C1.125 3.375 1.125 3.375 0 0 Z " fill="#895E67" transform="translate(163,118)"/>
<path d="M0 0 C0.391875 0.433125 0.78375 0.86625 1.1875 1.3125 C3.01796997 3.13582629 3.01796997 3.13582629 5.625 4.5625 C8 6 8 6 9 8 C7.35 7.67 5.7 7.34 4 7 C4 6.34 4 5.68 4 5 C3.01 4.67 2.02 4.34 1 4 C0.3125 1.9375 0.3125 1.9375 0 0 Z " fill="#A24247" transform="translate(120,84)"/>
<path d="M0 0 C2.35953094 2.35953094 2.49141413 3.77895617 3 7 C0.525 6.01 0.525 6.01 -2 5 C-1.34 3.35 -0.68 1.7 0 0 Z " fill="#DFEEF2" transform="translate(204,149)"/>
</svg>
