<?xml version="1.0" encoding="UTF-8"?>
<svg xmlns="http://www.w3.org/2000/svg" id="Layer_1" data-name="Layer 1" viewBox="0 0 24 24" width="512" height="512"><path d="M19.267,10.425c-.526-.458-1.024-.89-1.413-1.278-.099-.098-.238-.159-.371-.146-.139,.005-.27,.067-.36,.172-1.001,1.155-1.381,2.756-1.687,4.042-.148,.624-.424,1.786-.653,1.786-.754,0-.782-1.486-.782-1.501,0-.203-.125-.386-.313-.462-.187-.075-.402-.03-.546,.115-1.059,1.091-2.141,2.461-2.141,4.348,0,3.584,2.916,6.5,6.5,6.5s6.5-2.916,6.5-6.5c0-2.967-2.624-5.245-4.733-7.075Zm-3.181,12.025c-.378-.378-.586-.88-.586-1.414s.208-1.037,.586-1.415l1.414-1.414,1.414,1.414c.378,.378,.586,.88,.586,1.415s-.208,1.036-.586,1.414c-.272,.272-.604,.449-.953,.531-.152,.013-.306,.019-.461,.019s-.309-.007-.461-.019c-.35-.082-.681-.259-.953-.531Zm4.149-.179c.173-.383,.265-.802,.265-1.235,0-.801-.313-1.555-.879-2.122l-1.768-1.768c-.195-.195-.512-.195-.707,0l-1.768,1.768c-.566,.567-.879,1.32-.879,2.122,0,.433,.092,.852,.265,1.235-1.651-.95-2.765-2.733-2.765-4.771,0-1.15,.508-2.077,1.173-2.89,.225,.713,.702,1.39,1.609,1.39,1.02,0,1.301-1.184,1.626-2.554,.242-1.019,.536-2.253,1.152-3.196,.321,.297,.679,.607,1.051,.93,1.955,1.697,4.389,3.81,4.389,6.32,0,2.038-1.114,3.82-2.765,4.771Zm3.765-17.771v7c0,.276-.224,.5-.5,.5s-.5-.224-.5-.5V4.5c0-1.93-1.57-3.5-3.5-3.5H4.5c-1.93,0-3.5,1.57-3.5,3.5v15c0,1.93,1.57,3.5,3.5,3.5h7c.276,0,.5,.224,.5,.5s-.224,.5-.5,.5H4.5c-2.481,0-4.5-2.019-4.5-4.5V4.5C0,2.019,2.019,0,4.5,0h15c2.481,0,4.5,2.019,4.5,4.5ZM4,3c.552,0,1,.448,1,1s-.448,1-1,1-1-.448-1-1,.448-1,1-1Zm4,0c.552,0,1,.448,1,1s-.448,1-1,1-1-.448-1-1,.448-1,1-1Z"/></svg>
